<?xml version="1.0" encoding="utf-8"?>
<!-- Generator: Adobe Illustrator 16.0.0, SVG Export Plug-In . SVG Version: 6.00 Build 0)  -->
<!DOCTYPE svg PUBLIC "-//W3C//DTD SVG 1.1//EN" "http://www.w3.org/Graphics/SVG/1.1/DTD/svg11.dtd">
<svg version="1.1" id="Layer_1" xmlns="http://www.w3.org/2000/svg" xmlns:xlink="http://www.w3.org/1999/xlink" x="0px" y="0px"
	 width="476.947px" height="490.347px" viewBox="0 74.497 476.947 490.347" enable-background="new 0 74.497 476.947 490.347"
	 xml:space="preserve">
<g id="Group_731" transform="matrix(1, 0.017, -0.017, 1, -1435.936, 737.901)">
	<circle id="Ellipse_3" fill="#E7EFFD" cx="1424.301" cy="-761.438" r="1.412"/>
	<circle id="Ellipse_7" fill="#E7EFFD" cx="1490.134" cy="-739.336" r="1.412"/>
	<circle id="Ellipse_8" fill="#E7EFFD" cx="1898.784" cy="-742.16" r="1.412"/>
	<rect id="Rectangle_102" x="1754.258" y="-321.828" opacity="0.4" enable-background="new    " width="25.084" height="16.928"/>
	<rect id="Rectangle_103" x="1821.978" y="-321.828" opacity="0.4" enable-background="new    " width="25.084" height="16.928"/>
	<rect id="Rectangle_122" x="1534.181" y="-432.849" opacity="0.4" enable-background="new    " width="125.405" height="15.13"/>
	<rect id="Rectangle_123" x="1534.181" y="-384.574" opacity="0.4" enable-background="new    " width="125.405" height="15.131"/>
	<rect id="Rectangle_124" x="1534.181" y="-336.291" opacity="0.4" enable-background="new    " width="125.405" height="15.13"/>
	<path id="Path_549" fill="#E7EFFD" d="M1471.356-622.859l-2.158,0l0-2.158l-0.386,0.001l0,2.157l-2.157,0.001l0,0.386l2.158,0
		v2.157l0.386,0l0-2.158l2.158,0L1471.356-622.859z"/>
	<path id="Path_551" fill="#E7EFFD" d="M1522.464-676.431l-2.158,0l0-2.158l-0.395,0l0,2.158l-2.148,0l0,0.395l2.149,0.001l0,2.148
		l0.395,0l0-2.148l2.158-0.001L1522.464-676.431z"/>
	<circle id="Ellipse_10" fill="#E7EFFD" cx="1519.175" cy="-538.528" r="1.412"/>
	<circle id="Ellipse_13" fill="#E7EFFD" cx="1760.88" cy="-585.698" r="1.412"/>
	<path id="Path_553" fill="#65617D" d="M1558.354-306.733c0,0-17.542-4.078-25.707-7.84c-8.165-3.764-53.923-10.972-63.957,10.664
		c-10.034,21.637,13.8,50.468,19.752,53.608c5.952,3.14,63.957-39.828,63.957-39.828l45.748,19.3l8.771-29.944L1558.354-306.733z"/>
	<path id="Rectangle_125" fill="#65617D" d="M1612.351-300.778l129.879,0c19.131,0,34.641,15.509,34.64,34.641v0.001
		c0.001,19.131-15.509,34.64-34.64,34.64l-129.879,0c-19.131,0-34.64-15.509-34.64-34.64v-0.001
		C1577.711-285.269,1593.22-300.778,1612.351-300.778z"/>
	<path id="Path_554" opacity="0.1" enable-background="new    " d="M1776.87-266.137c0.006,6.813-2.001,13.478-5.77,19.155
		c-1.284,1.921-2.753,3.712-4.389,5.345c-6.49,6.509-15.309,10.161-24.5,10.148l-129.855,0
		c-19.134,0.103-34.728-15.325-34.83-34.459c-0.103-19.133,15.325-34.727,34.458-34.83c0.124-0.001,0.248,0,0.372,0l129.869,0
		C1761.357-300.779,1776.868-285.27,1776.87-266.137z"/>
	<path id="Path_555" fill="#FBBEBE" d="M1668.436-264.116c0,0-19.971,5.132-36.267,4.901c-16.296-0.231-92.523,31.443-92.523,31.443
		s-10.972,25.014,6.929,22.944c17.901-2.07,26.619-10.747,39.237-10.747c12.618,0,52.327-4.385,52.327-4.385l38.206-28.225
		L1668.436-264.116z"/>
	<path id="Path_556" fill="#FBBEBE" d="M1680.934-500.165l-35.82,7.06l-2.324,0.464c0,0-28.321-7.524-29.259-8.157
		c-0.938-0.632-26.646-35.267-26.646-35.267s13,0.14,23.208-5.745c0.368-0.211,0.728-0.439,1.088-0.658
		c4.49-2.707,7.9-6.889,9.648-11.832c0.184-0.517,0.342-1.053,0.491-1.614c1.087-4.192,1.158-9.271-0.3-15.419
		c-3.508-14.621,4.561-18.647,15.252-18.3c15.445,0.509,36.469,10.148,36.469,10.148c0.272,4.922,1.391,9.76,3.307,14.3
		c0.167,0.421,0.351,0.877,0.544,1.281c3.836,8.656,10.561,15.71,19.024,19.953l1.132,0.562c1.139,0.543,2.341,1.061,3.587,1.526
		C1727.648-531.512,1680.934-500.165,1680.934-500.165z"/>
	<path id="Path_557" opacity="0.1" enable-background="new    " d="M1676.628-563.903c-14.035,15.886-37.227,19.878-55.765,9.6
		c1.544-4.491,1.833-10.078,0.193-17.034c-8.464-35.741,51.749-8.148,51.749-8.148
		C1673.1-574.098,1674.397-568.814,1676.628-563.903z"/>
	<path id="Path_558" fill="#FBBEBE" d="M1687.933-595.652c0.015,8.446-2.357,16.725-6.841,23.883
		c-1.46,2.347-3.136,4.552-5.008,6.587c-7.9,8.659-18.873,13.884-30.575,14.56c-0.877,0.061-1.816,0.088-2.728,0.088
		c-24.932-0.001-45.142-20.213-45.142-45.145s20.212-45.142,45.144-45.141c24.93,0,45.139,20.208,45.143,45.138L1687.933-595.652z"
		/>
	<path id="Path_559" opacity="0.1" enable-background="new    " d="M1680.934-500.171l-35.82,7.06l-2.324,0.465
		c0,0-28.321-7.525-29.259-8.157c-0.938-0.633-26.646-35.267-26.646-35.267s13,0.139,23.208-5.745
		c0.368-0.211,0.728-0.439,1.088-0.658c3.245,3.508,13.867,13.428,30.557,13.358c2.142,0,4.281-0.156,6.4-0.465
		c5.035-0.772,10.113-1.273,15.182-1.754c9.71-1.017,24.558-3.964,32.356-12.542l1.132,0.561c1.14,0.544,2.341,1.062,3.588,1.526
		C1727.648-531.512,1680.934-500.171,1680.934-500.171z"/>
	<path id="Path_560" fill="#B2EFBA" d="M1721.376-408.623c0.307,6.9,5.333,84.647,5.333,84.647l-156.445,0l1.061-48.95l0.877-39.154
		l0.281-12.849l1.254-44.513l-4.535-4l-24.645-21.716l0,0c0.184-0.579,6.868-20.392,5.938-23.181
		c-0.93-2.789,11.92-14.1,16.314-14.735c2.497-0.58,4.953-1.326,7.35-2.236c7.394-2.631,17.261-6.419,18.349-5.824
		c1.535,0.825,16.919-0.605,17.542-0.667l0,0c0,0,11.349,14.674,31.628,14.586c2.135-0.011,4.266-0.181,6.376-0.509
		c5.034-0.772,10.113-1.272,15.182-1.8c10.201-1.061,26.058-4.263,33.487-13.858c3.567,0.351,7.083,1.104,10.482,2.246
		c5.014,1.338,10.175,2.043,15.366,2.1c4.083,1.14,8.066,2.61,11.91,4.396c3.651,1.734,7.424,3.199,11.288,4.385
		c0,0,7.21,1.877,9.1,20.059s3.789,28.527,3.789,28.527l-37.275,32.285C1721.382-449.382,1721.07-415.552,1721.376-408.623z"/>
	<path id="Path_561" fill="#FBBEBE" d="M1544.566-354.384l5.482,8.78l20.532,7.236l14.112-25.734l-13.007-8.78l-20.848-8.148
		l-11.911,6.895L1544.566-354.384z"/>
	<path id="Path_562" fill="#65617D" d="M1719.807-311.127c0,0,29.154-2.193,41.074-15.673c11.919-13.48,42-20.69,42-20.69
		s72.42-8.465,43.854,55.493c0,0-1.877,7.211-5.64,9.401s-12.848,7.84-12.848,7.84l-111.24-9.718L1719.807-311.127z"/>
	<path id="Path_563" opacity="0.1" enable-background="new    " d="M1776.87-266.142c0.006,6.814-2.001,13.478-5.77,19.156
		c-18.718,1.658-60.168,5.552-68.843,7.973c-10.655,2.956-32.223-2.193-34.582-2.772l-0.219-0.053c0,0-4.157-12.612-6.14-20.682
		c-0.877-3.666-1.342-6.394-0.763-6.6c1.886-0.623,19.13-5.333,18.813-2.63c-0.316,2.702,51.747-20.221,51.747-20.221l1.6,20.068
		C1737.998-265.853,1776.87-274.851,1776.87-266.142z"/>
	<path id="Path_564" fill="#65617D" d="M1830.476-282.913l-2.192,8.157c-5.009,5.572-10.944,10.238-17.543,13.788
		c-10.35,5.333-28.531,14.112-28.531,14.112s-66.772,5.64-78.06,8.771c-11.287,3.131-34.8-2.824-34.8-2.824
		s-8.771-26.646-6.894-27.276c1.877-0.632,19.12-5.324,18.813-2.631c-0.307,2.693,51.748-20.224,51.748-20.224L1830.476-282.913z"/>
	<path id="Path_565" fill="#FBBEBE" d="M1644.562-212.622c0,0,32.82,2.289,40.626,5.262c7.806,2.974,63.571-1.139,63.571-1.139
		s36.03,0.7,46.354,3.788c10.322,3.089,6.656-31.575-12.394-35.459c-19.049-3.885-45.899,1.833-45.899,1.833
		s-30.294-3.9-33.969-4.386c-3.675-0.486-27.874,0.219-27.874,0.219L1644.562-212.622z"/>
	<path id="Path_566" opacity="0.1" enable-background="new    " d="M1515.587-299.147c0,0,43.38,3.9,55.309,11.016L1515.587-299.147
		z"/>
	<path id="Path_567" opacity="0.1" enable-background="new    " d="M1786.166-327.599c0,0-33.969,8.262-47.283,20.419
		L1786.166-327.599z"/>
	<path id="Path_568" opacity="0.1" enable-background="new    " d="M1518.113-309.014c0.693,0.228,19.971,2.754,19.506,4.587
		C1537.154-302.594,1518.113-309.014,1518.113-309.014z"/>
	<path id="Path_569" opacity="0.1" enable-background="new    " d="M1487.819-260.652l2.508,9.411c0,0,5.64,4.385,6.894,6.578
		c1.254,2.193,8.464,2.824,8.464,2.824s7.525,3.447,9.411,5.324c1.886,1.876,22.252,7.84,41.381,10.348
		c19.129,2.508,54.546,7.21,62.071,9.718c5.316,1.649,10.772,2.802,16.3,3.447c0,0,14.1,7.525,21.629,5.648
		c7.529-1.877,20.375-36.057,20.375-36.057s-49.529-11.595-51.099-15.358c-1.571-3.763-49.222-21.313-49.222-21.313l-28.216,0.666
		L1487.819-260.652z"/>
	<path id="Path_570" fill="#65617D" d="M1485.933-259.713l2.508,9.411c0,0,5.648,4.384,6.9,6.578
		c1.252,2.193,8.464,2.824,8.464,2.824s7.525,3.447,9.4,5.332c1.875,1.886,22.26,7.833,41.381,10.341
		c19.121,2.509,54.554,7.21,62.08,9.718c5.317,1.644,10.773,2.794,16.3,3.438c0,0,14.112,7.517,21.638,5.64
		c7.526-1.877,20.375-36.056,20.375-36.056s-49.537-11.595-51.1-15.359c-1.563-3.762-71.481-32.282-71.481-32.282l-21.925-5.02
		L1485.933-259.713z"/>
	<path id="Path_571" fill="#B2EFBA" d="M1550.039-498.288l-5.482,3.14l-10.525,72.1c0,0-5.587,5.333-3.842,8.771
		c1.745,3.438-0.342,9.4-0.342,9.4s-9.437,4.077-7.341,6.587c2.096,2.509,1.14,7.21-0.3,10.341s-3.8,8.771,0,9.718
		c3.8,0.947,0.649,13.156,0.649,13.156s13.235-1.509,12.279,6.262c-0.395,3.141,14.963,13.157,14.963,13.157
		s-17.454-31.663,21.646-27.277l3.359-17.849c0,0,3.359-10.051,0-13.156c-3.359-3.105,0.754-18.024,0.754-18.024l0.737-64.737
		L1550.039-498.288z"/>
	<path id="Path_572" opacity="0.1" enable-background="new    " d="M1541.523-405.168c0.693,1.149,21.8,3.508,23.181,7.254
		C1566.085-394.167,1541.523-405.168,1541.523-405.168z"/>
	<path id="Path_573" opacity="0.1" enable-background="new    " d="M1534.866-387.266c0,0,2.868-8.955,9.648-7.351
		C1551.294-393.012,1534.866-387.266,1534.866-387.266z"/>
	<path id="Path_574" opacity="0.1" enable-background="new    " d="M1531.199-374.189c0,0,5.043-11.937,11.928-11.016
		C1550.012-384.285,1531.199-374.189,1531.199-374.189z"/>
	<path id="Path_575" fill="#FBBEBE" d="M1760.88-374.451l-2.2,13.156c0,0-22.567,41.389-26.645,42.013
		c-4.079,0.623-26.313-27.584-26.313-27.584l-5.955-27.593l23.444-4.447l10.411-10.288
		C1733.622-389.196,1759.933-386.679,1760.88-374.451z"/>
	<path id="Path_576" fill="#B2EFBA" d="M1750.215-487.622l8.464,5.955l0.001,31.663c0,0,6.587-0.632,5.017,2.824
		c-1.57,3.456-4.701,5.324-1.878,8.465c2.823,3.139,2.194,9.087-0.315,9.717c-2.509,0.632-6.894,3.132-2.824,4.7
		c4.07,1.569,6.587,4.385,6.587,6.271c0,1.887,0.316,4.701-1.254,6.894c-1.57,2.194-3.131,7.21-1.255,9.099s-1.569,11.6-1.569,11.6
		s5.963,15.366,0.316,19.752c0,0-2.509,8.771-2.825,9.401c0,0,3.956-30.514-35.487-17.613c0,0-0.728-11.63-1-15.937
		c-0.272-4.307,3.399-5.569,1.376-8.139c-2.023-2.57-7.1-8.473-4.7-10.034c2.4-1.561,1.57-4.385,0.623-6.587
		c-0.948-2.202-4.254-2.193-1.255-4.859c3-2.666,4.779-5.166,3.017-6.42c-1.763-1.254-4.824-5.341-2.385-7.218
		c2.438-1.876,2.507-29.154,2.507-29.154S1731.409-507.374,1750.215-487.622z"/>
	<path id="Path_577" opacity="0.1" enable-background="new    " d="M1746.233-433.682c0,0,12.052-3.271,12.446,0
		C1759.074-430.411,1746.233-433.682,1746.233-433.682z"/>
	<path id="Path_578" opacity="0.1" enable-background="new    " d="M1732.691-424.673c0,0,16.524-4.131,18.585-0.921
		C1753.337-422.385,1732.691-424.673,1732.691-424.673z"/>
	<path id="Path_579" opacity="0.1" enable-background="new    " d="M1729.016-415.956c0,0,24.786-3.447,26.391,1.6
		C1757.012-409.309,1729.016-415.956,1729.016-415.956z"/>
	<path id="Path_580" opacity="0.1" enable-background="new    " d="M1732.691-405.168c0.921,0.228,23.865,1.833,24.321,6.192
		C1757.468-394.617,1732.691-405.168,1732.691-405.168z"/>
	<path id="Rectangle_126" fill="#3F3D56" d="M1558.799-391.038l175.596,0c5.783-0.001,10.47,4.687,10.47,10.469l0,90.687
		c0,5.782-4.687,10.469-10.469,10.47l-175.596,0c-5.782,0-10.47-4.688-10.47-10.47l0-90.686
		C1548.329-386.35,1553.017-391.038,1558.799-391.038z"/>
	<circle id="Ellipse_14" fill="#E7EFFD" cx="1646.597" cy="-335.221" r="7.245"/>
	<path id="Path_581" opacity="0.1" enable-background="new    " d="M1581.237-459.459c0,0,18.84,14.4,33.408,3.429
		C1614.645-456.03,1590.017-453.793,1581.237-459.459z"/>
	<path id="Path_582" opacity="0.1" enable-background="new    " d="M1676.628-455.583c0,0,18.831,14.393,33.4,3.421
		C1710.028-452.162,1685.408-449.917,1676.628-455.583z"/>
	<path id="Path_583" opacity="0.1" enable-background="new    " d="M1687.933-595.653c0.015,8.446-2.356,16.725-6.841,23.883
		c-0.377-12.569-3.333-25.146-10.174-35.645c-6.262-9.647-25.3-26.479-38.39-21.787c-2.776,1.018-4.901,3.298-5.719,6.14
		c-1.3,4.929,2.5,7.017,4.938,10.899c4.135,6.733,5.75,14.713,4.561,22.523c-0.166,1.052-0.385,2.093-0.658,3.122
		c-2.061,7.736-6.78,16.586-1.912,22.927c3.394,4.385,10.692,5.947,11.683,11.4c0.091,0.515,0.12,1.039,0.088,1.561
		c-0.228,3.693-3.377,6.947-4.754,10.569c-1.614,4.271-0.7,8.516,0.973,12.805c2.175,5.6,5.649,11.253,6.491,17.164
		c0.842,5.91-0.974,11.4-3.114,16.954c-2.026,5.262-4.385,10.481-5.175,15.963c-1.517,10.42,2.307,22.471-4.254,30.7
		c-0.668,0.995-1.696,1.69-2.868,1.937c-4.2,0.439-3.508-7.113-6.868-9.648c0.36,4.385,0.7,8.964-0.877,13.07
		c-1.577,4.105-5.736,7.599-10.086,6.9l-1.5-9.85c-2.96,2.914-6.522,5.144-10.437,6.534c1.542-10.472,5.253-20.506,10.894-29.462
		c-11.042,5.315-17.48,16.822-23.225,27.646c-3.579,6.762-7.288,14.147-6.034,21.7c0.509,3.078,1.833,6.008,2.123,9.1
		c0.29,3.092-0.833,6.718-3.719,7.894c-2.517,1.025-5.455-0.2-7.271-2.254l-0.316-0.377c-0.175-0.228-0.342-0.465-0.5-0.7
		c-0.314-0.476-0.592-0.974-0.833-1.491c-0.784-1.855-1.371-3.786-1.754-5.762l-0.193-0.878
		c-2.921-12.814-5.552-26.032-3.412-38.995c0.789-4.771,2.228-9.508,2.052-14.349c-0.132-2.729-0.688-5.422-1.649-7.981
		c-2.561-7.175-7.49-13.761-10.3-20.989c-0.031-0.049-0.054-0.103-0.07-0.158c-1.474-3.825-2.2-8.6,0.526-11.674
		c1.4-1.588,3.508-2.386,5.262-3.508c5.456-3.552,7.894-10.3,8.9-16.734c0.454-2.902,0.683-5.835,0.684-8.771
		c7.394-2.631,17.261-6.42,18.349-5.824c1.535,0.824,16.919-0.605,17.542-0.667c5.008-2.693,8.844-7.141,10.771-12.49
		c0.184-0.517,0.341-1.053,0.491-1.614c-21.941-11.841-30.129-39.226-18.288-61.167c11.84-21.941,39.226-30.129,61.167-18.289
		c14.598,7.878,23.7,23.127,23.704,39.715L1687.933-595.653z"/>
	<path id="Path_584" fill="#3F3D56" d="M1635.651-588.39c-2.07,7.736-6.78,16.586-1.9,22.936c3.394,4.386,10.692,5.938,11.665,11.4
		c0.781,4.385-3.087,8-4.649,12.121c-3.719,9.85,5.981,19.533,7.455,29.961c1.605,11.314-6.639,21.62-8.28,32.926
		c-1.517,10.42,2.307,22.462-4.254,30.7c-0.663,0.999-1.693,1.696-2.868,1.937c-4.2,0.447-3.508-7.1-6.867-9.648
		c0.359,4.385,0.7,8.965-0.877,13.069c-1.577,4.104-5.736,7.587-10.086,6.9l-1.5-9.858c-2.959,2.915-6.522,5.145-10.437,6.534
		c1.541-10.47,5.248-20.504,10.885-29.461c-11.042,5.316-17.471,16.822-23.216,27.638c-3.587,6.762-7.289,14.156-6.043,21.707
		c0.509,3.079,1.833,6,2.123,9.101c0.289,3.1-0.833,6.709-3.719,7.894c-2.631,1.099-5.815-0.36-7.587-2.632
		c-1.772-2.271-2.456-5.165-3.1-7.964c-3-13.086-5.8-26.593-3.613-39.837c0.789-4.78,2.228-9.515,2.052-14.349
		c-0.377-10.585-8.192-19.299-12-29.145c-1.482-3.833-2.2-8.6,0.526-11.674c1.4-1.588,3.508-2.386,5.263-3.508
		c5.447-3.56,7.894-10.299,8.894-16.734c1.077-6.96,0.878-14.057-0.588-20.945c-2.2-10.306-7.254-20.376-6-30.838
		c1.228-10.3,8.28-18.787,13.025-28.005c6.104-11.931,8.447-25.434,6.718-38.724c-0.816-6.182-2.245-13.34,1.947-17.963
		c5.034-5.543,14.779-3.456,20.524-8.262c2.807-2.342,4.167-5.947,6.245-8.946c5.318-7.378,14.638-10.706,23.427-8.367
		c3.947,1.131,7.49,3.378,11.4,4.649c5.508,1.754,11.4,1.561,17.191,2.255c5.791,0.693,11.849,2.631,15.164,7.376
		c1.754,2.526,2.552,5.599,4.166,8.217c3.464,5.613,10.069,8.315,15.068,12.621c8.765,7.815,12.005,20.115,8.227,31.233
		c-2.982,8.307-9.885,15.656-9.3,24.463c0.236,3.622,1.754,7.173,1.282,10.761c-1.387,9.99-15.884,11.981-20.893,20.734
		c0.4-14.349-2.352-29.128-10.183-41.153c-6.262-9.647-25.3-26.488-38.39-21.799c-2.773,1.022-4.896,3.301-5.719,6.139
		c-1.3,4.921,2.5,7.017,4.938,10.9C1636.49-606.365,1637.892-597.11,1635.651-588.39z"/>
	<g id="Group_730" transform="translate(1557.546 -657.241)" opacity="0.2">
		<path id="Path_585" d="M16.612,118.564c0.11-4.507-0.311-9.011-1.254-13.419c-1.868-8.771-5.78-17.358-6.14-26.163
			c-0.509,9.806,4.078,19.3,6.14,28.943C16.106,111.426,16.526,114.987,16.612,118.564z"/>
		<path id="Path_586" d="M53.976,189.739c0.763-1.395,1.552-2.78,2.4-4.131c-11.034,5.315-17.471,16.822-23.216,27.646
			c-3.324,6.255-6.736,13.061-6.227,20.025c0.421-5.973,3.359-11.8,6.227-17.208C38.478,206.062,44.39,195.484,53.976,189.739z"/>
		<path id="Path_587" d="M29.198,246.46c-0.333,2.368-1.509,4.615-3.666,5.501c-2.631,1.088-5.815-0.36-7.578-2.631
			c-1.763-2.272-2.465-5.157-3.1-7.965c-2.14-9.349-4.175-18.926-4.385-28.461c-0.21,10.464,2.017,21.006,4.385,31.285
			c0.64,2.801,1.333,5.7,3.1,7.964c1.767,2.264,4.92,3.719,7.578,2.631c2.886-1.184,4.017-4.789,3.728-7.893
			C29.21,246.753,29.189,246.606,29.198,246.46z"/>
		<path id="Path_588" d="M79.122,59.431c-0.102,2.252-0.443,4.486-1.017,6.666c-1.526,5.727-4.508,12.078-3.973,17.542
			c0.421-4.772,2.7-9.965,3.973-14.744C78.918,65.81,79.262,62.618,79.122,59.431z"/>
		<path id="Path_589" d="M29.646,17.577c0.073-3.345-0.109-6.691-0.544-10.008C28.777,5.131,28.365,2.535,28.225,0
			c-0.039,3.484,0.255,6.964,0.877,10.393C29.415,12.775,29.596,15.174,29.646,17.577L29.646,17.577z"/>
		<path id="Path_590" d="M87.875,103.276c0.009-0.078-0.012-0.157-0.061-0.219c-0.667,3.263-3.35,6.244-4.587,9.525
			c-0.734,1.958-0.999,4.061-0.772,6.14c0.107-1.136,0.366-2.25,0.772-3.316C84.779,111.275,88.646,107.627,87.875,103.276z"/>
		<path id="Path_591" d="M13.291,187.177c-0.386-10.585-8.192-19.299-12.007-29.145c-0.608-1.55-1.021-3.171-1.228-4.824
			c-0.211,2.611,0.21,5.234,1.228,7.648c3.754,9.717,11.349,18.27,11.964,28.619C13.291,188.712,13.315,187.94,13.291,187.177z"/>
		<path id="Path_592" d="M113.398,45.222c-6.27-9.647-25.3-26.488-38.39-21.8c-2.776,1.021-4.901,3.3-5.727,6.139
			c-0.311,1.075-0.345,2.21-0.1,3.301c0.012-0.162,0.046-0.321,0.1-0.474c0.824-2.841,2.95-5.12,5.727-6.139
			c13.086-4.692,32.119,12.174,38.39,21.8c7.088,10.893,10.008,24.041,10.201,37.083C123.783,71.14,120.984,56.87,113.398,45.222z"
			/>
		<path id="Path_593" d="M144.447,65.614c-1.378,9.964-15.787,11.971-20.848,20.67l0,2.877c5-8.771,19.507-10.744,20.883-20.734
			c0.123-0.982,0.124-1.975,0.001-2.956C144.475,65.52,144.464,65.568,144.447,65.614z"/>
		<path id="Path_594" d="M152.463,30.382c-2.982,8.315-9.884,15.656-9.3,24.472l0,0.386c0.649-7.762,6.552-14.5,9.253-22.032
			c1.216-3.442,1.738-7.09,1.535-10.735c-0.097,2.697-0.599,5.365-1.492,7.911L152.463,30.382z"/>
		<path id="Path_595" d="M78.14,206.158c-0.663,1.001-1.693,1.701-2.868,1.947c-4.2,0.447-3.508-7.101-6.868-9.648
			c0.088,0.999,0.167,2.009,0.219,3.017c3.122,2.7,2.544,9.885,6.648,9.447c1.176-0.24,2.207-0.937,2.868-1.938
			c3.745-4.7,4.1-10.639,4.008-16.8C82.051,197.317,81.304,202.22,78.14,206.158z"/>
		<path id="Path_596" d="M67.516,211.526c-1.6,4.114-5.736,7.6-10.1,6.9c-0.497-3.281-0.994-6.566-1.491-9.858
			c-2.832,2.779-6.21,4.938-9.92,6.341c-0.193,0.999-0.377,2.008-0.526,3.017c3.918-1.388,7.483-3.618,10.446-6.534
			c0.497,3.292,0.994,6.578,1.491,9.857c4.385,0.684,8.5-2.788,10.1-6.899c0.98-2.865,1.371-5.9,1.149-8.92
			C68.619,207.511,68.231,209.571,67.516,211.526z"/>
		<path id="Path_597" d="M82.393,175.46c-0.339,2.649-0.465,5.321-0.377,7.99c0.014-1.728,0.14-3.454,0.377-5.166
			c1.57-10.779,9.122-20.646,8.438-31.338C90.226,156.611,83.823,165.637,82.393,175.46z"/>
	</g>
</g>
</svg>
